<?xml version="1.0" encoding="UTF-8" standalone="no"?>
<!DOCTYPE svg PUBLIC "-//W3C//DTD SVG 1.1//EN"
 "http://www.w3.org/Graphics/SVG/1.1/DTD/svg11.dtd">
<!-- Generated by graphviz version 2.49.3 (20211023.0002)
 -->
<!-- Title: G Pages: 1 -->
<svg width="2140pt" height="506pt"
 viewBox="0.00 0.00 2140.00 505.70" xmlns="http://www.w3.org/2000/svg" xmlns:xlink="http://www.w3.org/1999/xlink">
<g id="graph0" class="graph" transform="scale(1 1) rotate(0) translate(4 501.7)">
<title>G</title>
<polygon fill="white" stroke="transparent" points="-4,4 -4,-501.7 2136,-501.7 2136,4 -4,4"/>
<g id="clust1" class="cluster">
<title>cluster_G</title>
<path fill="#808080" fill-opacity="0.094118" stroke="black" d="M20,-8C20,-8 2112,-8 2112,-8 2118,-8 2124,-14 2124,-20 2124,-20 2124,-477.7 2124,-477.7 2124,-483.7 2118,-489.7 2112,-489.7 2112,-489.7 20,-489.7 20,-489.7 14,-489.7 8,-483.7 8,-477.7 8,-477.7 8,-20 8,-20 8,-14 14,-8 20,-8"/>
</g>
<g id="clust7" class="cluster">
<title>cluster_menu</title>
<path fill="#808080" fill-opacity="0.094118" stroke="black" d="M1988,-195.48C1988,-195.48 2098,-195.48 2098,-195.48 2104,-195.48 2110,-201.48 2110,-207.48 2110,-207.48 2110,-276.22 2110,-276.22 2110,-282.22 2104,-288.22 2098,-288.22 2098,-288.22 1988,-288.22 1988,-288.22 1982,-288.22 1976,-282.22 1976,-276.22 1976,-276.22 1976,-207.48 1976,-207.48 1976,-201.48 1982,-195.48 1988,-195.48"/>
<text text-anchor="middle" x="2043" y="-273.02" font-family="Times New Roman,serif" font-size="14.00">menu</text>
</g>
<g id="clust2" class="cluster">
<title>cluster_app</title>
<path fill="#808080" fill-opacity="0.094118" stroke="black" d="M1500,-16C1500,-16 1956,-16 1956,-16 1962,-16 1968,-22 1968,-28 1968,-28 1968,-469.7 1968,-469.7 1968,-475.7 1962,-481.7 1956,-481.7 1956,-481.7 1500,-481.7 1500,-481.7 1494,-481.7 1488,-475.7 1488,-469.7 1488,-469.7 1488,-28 1488,-28 1488,-22 1494,-16 1500,-16"/>
<text text-anchor="middle" x="1728" y="-466.5" font-family="Times New Roman,serif" font-size="14.00">app</text>
</g>
<g id="clust3" class="cluster">
<title>cluster_app__Message</title>
<path fill="#808080" fill-opacity="0.094118" stroke="black" d="M1988,-388.96C1988,-388.96 2104,-388.96 2104,-388.96 2110,-388.96 2116,-394.96 2116,-400.96 2116,-400.96 2116,-469.7 2116,-469.7 2116,-475.7 2110,-481.7 2104,-481.7 2104,-481.7 1988,-481.7 1988,-481.7 1982,-481.7 1976,-475.7 1976,-469.7 1976,-469.7 1976,-400.96 1976,-400.96 1976,-394.96 1982,-388.96 1988,-388.96"/>
<text text-anchor="middle" x="2046" y="-466.5" font-family="Times New Roman,serif" font-size="14.00">app.Message</text>
</g>
<g id="clust5" class="cluster">
<title>cluster_listendata</title>
<path fill="#808080" fill-opacity="0.094118" stroke="black" d="M240,-195.48C240,-195.48 590,-195.48 590,-195.48 596,-195.48 602,-201.48 602,-207.48 602,-207.48 602,-368.96 602,-368.96 602,-374.96 596,-380.96 590,-380.96 590,-380.96 240,-380.96 240,-380.96 234,-380.96 228,-374.96 228,-368.96 228,-368.96 228,-207.48 228,-207.48 228,-201.48 234,-195.48 240,-195.48"/>
<text text-anchor="middle" x="415" y="-365.76" font-family="Times New Roman,serif" font-size="14.00">listendata</text>
</g>
<g id="clust4" class="cluster">
<title>cluster_layer4_v1</title>
<path fill="#808080" fill-opacity="0.094118" stroke="black" d="M622,-195.48C622,-195.48 766,-195.48 766,-195.48 772,-195.48 778,-201.48 778,-207.48 778,-207.48 778,-276.22 778,-276.22 778,-282.22 772,-288.22 766,-288.22 766,-288.22 622,-288.22 622,-288.22 616,-288.22 610,-282.22 610,-276.22 610,-276.22 610,-207.48 610,-207.48 610,-201.48 616,-195.48 622,-195.48"/>
<text text-anchor="middle" x="694" y="-273.02" font-family="Times New Roman,serif" font-size="14.00">layer4_v1</text>
</g>
<g id="clust6" class="cluster">
<title>cluster_listendata__Thread</title>
<path fill="#808080" fill-opacity="0.094118" stroke="black" d="M798,-195.48C798,-195.48 1114,-195.48 1114,-195.48 1120,-195.48 1126,-201.48 1126,-207.48 1126,-207.48 1126,-276.22 1126,-276.22 1126,-282.22 1120,-288.22 1114,-288.22 1114,-288.22 798,-288.22 798,-288.22 792,-288.22 786,-282.22 786,-276.22 786,-276.22 786,-207.48 786,-207.48 786,-201.48 792,-195.48 798,-195.48"/>
<text text-anchor="middle" x="956" y="-273.02" font-family="Times New Roman,serif" font-size="14.00">listendata.Thread</text>
</g>
<g id="clust8" class="cluster">
<title>cluster_parsedata</title>
<path fill="#808080" fill-opacity="0.094118" stroke="black" d="M1146,-195.48C1146,-195.48 1468,-195.48 1468,-195.48 1474,-195.48 1480,-201.48 1480,-207.48 1480,-207.48 1480,-276.22 1480,-276.22 1480,-282.22 1474,-288.22 1468,-288.22 1468,-288.22 1146,-288.22 1146,-288.22 1140,-288.22 1134,-282.22 1134,-276.22 1134,-276.22 1134,-207.48 1134,-207.48 1134,-201.48 1140,-195.48 1146,-195.48"/>
<text text-anchor="middle" x="1307" y="-273.02" font-family="Times New Roman,serif" font-size="14.00">parsedata</text>
</g>
<!-- app -->
<g id="node1" class="node">
<title>app</title>
<ellipse fill="#ffffff" fill-opacity="0.698039" stroke="black" cx="1453" cy="-423.83" rx="27" ry="18"/>
<text text-anchor="middle" x="1453" y="-420.13" font-family="Times New Roman,serif" font-size="14.00" fill="#000000">app</text>
</g>
<!-- menu -->
<g id="node4" class="node">
<title>menu</title>
<ellipse fill="#ffffff" fill-opacity="0.698039" stroke="black" cx="1447" cy="-323.09" rx="30.59" ry="18"/>
<text text-anchor="middle" x="1447" y="-319.39" font-family="Times New Roman,serif" font-size="14.00" fill="#000000">menu</text>
</g>
<!-- app&#45;&gt;menu -->
<g id="edge1" class="edge">
<title>app&#45;&gt;menu</title>
<path fill="none" stroke="#000000" d="M1451.95,-405.63C1451.04,-390.62 1449.7,-368.59 1448.65,-351.21"/>
<polygon fill="#000000" stroke="#000000" points="1452.13,-350.86 1448.03,-341.09 1445.15,-351.29 1452.13,-350.86"/>
</g>
<!-- app__main -->
<g id="node10" class="node">
<title>app__main</title>
<ellipse fill="#fecccc" fill-opacity="0.698039" stroke="black" cx="1758" cy="-323.09" rx="62.45" ry="26.74"/>
<text text-anchor="middle" x="1758" y="-326.89" font-family="Times New Roman,serif" font-size="14.00" fill="#000000">main</text>
<text text-anchor="middle" x="1758" y="-311.89" font-family="Times New Roman,serif" font-size="14.00" fill="#000000">(app.py:189)</text>
</g>
<!-- app&#45;&gt;app__main -->
<g id="edge2" class="edge">
<title>app&#45;&gt;app__main</title>
<path fill="none" stroke="#000000" d="M1463.15,-407.01C1468.46,-400.17 1475.61,-392.85 1484,-388.96 1524.95,-369.96 1644.71,-396.75 1687,-380.96 1701.91,-375.39 1716.08,-365.4 1727.78,-355.33"/>
<polygon fill="#000000" stroke="#000000" points="1730.39,-357.69 1735.47,-348.39 1725.7,-352.49 1730.39,-357.69"/>
</g>
<!-- layer4_v1 -->
<g id="node2" class="node">
<title>layer4_v1</title>
<ellipse fill="#ffffff" fill-opacity="0.698039" stroke="black" cx="62" cy="-323.09" rx="46.29" ry="18"/>
<text text-anchor="middle" x="62" y="-319.39" font-family="Times New Roman,serif" font-size="14.00" fill="#000000">layer4_v1</text>
</g>
<!-- listendata -->
<g id="node3" class="node">
<title>listendata</title>
<ellipse fill="#ffffff" fill-opacity="0.698039" stroke="black" cx="315" cy="-423.83" rx="44.39" ry="18"/>
<text text-anchor="middle" x="315" y="-420.13" font-family="Times New Roman,serif" font-size="14.00" fill="#000000">listendata</text>
</g>
<!-- listendata&#45;&gt;layer4_v1 -->
<g id="edge14" class="edge">
<title>listendata&#45;&gt;layer4_v1</title>
<path fill="none" stroke="#000000" d="M271.4,-420.76C229.73,-417.17 166.3,-407.42 118,-380.96 103.53,-373.03 90.4,-360.17 80.5,-348.68"/>
<polygon fill="#000000" stroke="#000000" points="82.95,-346.15 73.89,-340.65 77.54,-350.6 82.95,-346.15"/>
</g>
<!-- parsedata -->
<g id="node5" class="node">
<title>parsedata</title>
<ellipse fill="#ffffff" fill-opacity="0.698039" stroke="black" cx="172" cy="-323.09" rx="45.49" ry="18"/>
<text text-anchor="middle" x="172" y="-319.39" font-family="Times New Roman,serif" font-size="14.00" fill="#000000">parsedata</text>
</g>
<!-- listendata&#45;&gt;parsedata -->
<g id="edge15" class="edge">
<title>listendata&#45;&gt;parsedata</title>
<path fill="none" stroke="#000000" d="M282.55,-411.57C264.37,-404.39 241.84,-393.98 224,-380.96 211.6,-371.91 199.87,-359.54 190.7,-348.66"/>
<polygon fill="#000000" stroke="#000000" points="193.25,-346.24 184.22,-340.7 187.82,-350.66 193.25,-346.24"/>
</g>
<!-- listendata__listen_threads -->
<g id="node20" class="node">
<title>listendata__listen_threads</title>
<ellipse fill="#ccfecc" fill-opacity="0.698039" stroke="black" cx="315" cy="-323.09" rx="79.39" ry="26.74"/>
<text text-anchor="middle" x="315" y="-326.89" font-family="Times New Roman,serif" font-size="14.00" fill="#000000">listen_threads</text>
<text text-anchor="middle" x="315" y="-311.89" font-family="Times New Roman,serif" font-size="14.00" fill="#000000">(listendata.py:56)</text>
</g>
<!-- listendata&#45;&gt;listendata__listen_threads -->
<g id="edge13" class="edge">
<title>listendata&#45;&gt;listendata__listen_threads</title>
<path fill="none" stroke="#000000" d="M315,-405.63C315,-393.15 315,-375.81 315,-360.33"/>
<polygon fill="#000000" stroke="#000000" points="318.5,-359.99 315,-349.99 311.5,-359.99 318.5,-359.99"/>
</g>
<!-- app__Message -->
<g id="node6" class="node">
<title>app__Message</title>
<ellipse fill="#fecccc" fill-opacity="0.698039" stroke="black" cx="1572" cy="-140.61" rx="62.45" ry="26.74"/>
<text text-anchor="middle" x="1572" y="-144.41" font-family="Times New Roman,serif" font-size="14.00" fill="#000000">Message</text>
<text text-anchor="middle" x="1572" y="-129.41" font-family="Times New Roman,serif" font-size="14.00" fill="#000000">(app.py:119)</text>
</g>
<!-- app__craftMessage -->
<g id="node7" class="node">
<title>app__craftMessage</title>
<ellipse fill="#fecccc" fill-opacity="0.698039" stroke="black" cx="1896" cy="-140.61" rx="64.19" ry="26.74"/>
<text text-anchor="middle" x="1896" y="-144.41" font-family="Times New Roman,serif" font-size="14.00" fill="#000000">craftMessage</text>
<text text-anchor="middle" x="1896" y="-129.41" font-family="Times New Roman,serif" font-size="14.00" fill="#000000">(app.py:173)</text>
</g>
<!-- app__draft_message -->
<g id="node8" class="node">
<title>app__draft_message</title>
<ellipse fill="#fecccc" fill-opacity="0.698039" stroke="black" cx="1722" cy="-140.61" rx="69.09" ry="26.74"/>
<text text-anchor="middle" x="1722" y="-144.41" font-family="Times New Roman,serif" font-size="14.00" fill="#000000">draft_message</text>
<text text-anchor="middle" x="1722" y="-129.41" font-family="Times New Roman,serif" font-size="14.00" fill="#000000">(app.py:111)</text>
</g>
<!-- app__read_field_bits -->
<g id="node13" class="node">
<title>app__read_field_bits</title>
<ellipse fill="#fecccc" fill-opacity="0.698039" stroke="black" cx="1722" cy="-50.87" rx="70.92" ry="26.74"/>
<text text-anchor="middle" x="1722" y="-54.67" font-family="Times New Roman,serif" font-size="14.00" fill="#000000">read_field_bits</text>
<text text-anchor="middle" x="1722" y="-39.67" font-family="Times New Roman,serif" font-size="14.00" fill="#000000">(app.py:132)</text>
</g>
<!-- app__draft_message&#45;&gt;app__read_field_bits -->
<g id="edge8" class="edge">
<title>app__draft_message&#45;&gt;app__read_field_bits</title>
<path fill="none" stroke="#000000" d="M1722,-113.29C1722,-105.32 1722,-96.43 1722,-87.94"/>
<polygon fill="#000000" stroke="#000000" points="1725.5,-87.87 1722,-77.87 1718.5,-87.87 1725.5,-87.87"/>
</g>
<!-- app__listenUDP -->
<g id="node9" class="node">
<title>app__listenUDP</title>
<ellipse fill="#fecccc" fill-opacity="0.698039" stroke="black" cx="1756" cy="-230.35" rx="62.45" ry="26.74"/>
<text text-anchor="middle" x="1756" y="-234.15" font-family="Times New Roman,serif" font-size="14.00" fill="#000000">listenUDP</text>
<text text-anchor="middle" x="1756" y="-219.15" font-family="Times New Roman,serif" font-size="14.00" fill="#000000">(app.py:156)</text>
</g>
<!-- app__main&#45;&gt;app__listenUDP -->
<g id="edge12" class="edge">
<title>app__main&#45;&gt;app__listenUDP</title>
<path fill="none" stroke="#000000" d="M1757.42,-295.84C1757.22,-286.93 1757,-276.8 1756.79,-267.26"/>
<polygon fill="#000000" stroke="#000000" points="1760.29,-267.14 1756.57,-257.22 1753.29,-267.3 1760.29,-267.14"/>
</g>
<!-- app__sendUDP -->
<g id="node14" class="node">
<title>app__sendUDP</title>
<ellipse fill="#fecccc" fill-opacity="0.698039" stroke="black" cx="1898" cy="-230.35" rx="62.45" ry="26.74"/>
<text text-anchor="middle" x="1898" y="-234.15" font-family="Times New Roman,serif" font-size="14.00" fill="#000000">sendUDP</text>
<text text-anchor="middle" x="1898" y="-219.15" font-family="Times New Roman,serif" font-size="14.00" fill="#000000">(app.py:147)</text>
</g>
<!-- app__main&#45;&gt;app__sendUDP -->
<g id="edge11" class="edge">
<title>app__main&#45;&gt;app__sendUDP</title>
<path fill="none" stroke="#000000" d="M1800.4,-303.1C1809.38,-298.58 1818.66,-293.51 1827,-288.22 1839.44,-280.32 1852.25,-270.62 1863.51,-261.48"/>
<polygon fill="#000000" stroke="#000000" points="1865.92,-264.03 1871.4,-254.96 1861.46,-258.63 1865.92,-264.03"/>
</g>
<!-- menu__menu -->
<g id="node24" class="node">
<title>menu__menu</title>
<ellipse fill="#ccfefe" fill-opacity="0.698039" stroke="black" cx="2043" cy="-230.35" rx="58.88" ry="26.74"/>
<text text-anchor="middle" x="2043" y="-234.15" font-family="Times New Roman,serif" font-size="14.00" fill="#000000">menu</text>
<text text-anchor="middle" x="2043" y="-219.15" font-family="Times New Roman,serif" font-size="14.00" fill="#000000">(menu.py:4)</text>
</g>
<!-- app__main&#45;&gt;menu__menu -->
<g id="edge10" class="edge">
<title>app__main&#45;&gt;menu__menu</title>
<path fill="none" stroke="#000000" d="M1820.33,-320.64C1864.35,-317.64 1923.83,-309.51 1972,-288.22 1986.44,-281.84 2000.42,-271.77 2012.11,-261.87"/>
<polygon fill="#000000" stroke="#000000" points="2014.62,-264.33 2019.81,-255.09 2009.99,-259.07 2014.62,-264.33"/>
</g>
<!-- app__message_fwd_listen -->
<g id="node11" class="node">
<title>app__message_fwd_listen</title>
<ellipse fill="#fecccc" fill-opacity="0.698039" stroke="black" cx="1587" cy="-323.09" rx="91.43" ry="26.74"/>
<text text-anchor="middle" x="1587" y="-326.89" font-family="Times New Roman,serif" font-size="14.00" fill="#000000">message_fwd_listen</text>
<text text-anchor="middle" x="1587" y="-311.89" font-family="Times New Roman,serif" font-size="14.00" fill="#000000">(app.py:56)</text>
</g>
<!-- app__message_fwd_send -->
<g id="node12" class="node">
<title>app__message_fwd_send</title>
<ellipse fill="#fecccc" fill-opacity="0.698039" stroke="black" cx="1586" cy="-230.35" rx="89.61" ry="26.74"/>
<text text-anchor="middle" x="1586" y="-234.15" font-family="Times New Roman,serif" font-size="14.00" fill="#000000">message_fwd_send</text>
<text text-anchor="middle" x="1586" y="-219.15" font-family="Times New Roman,serif" font-size="14.00" fill="#000000">(app.py:87)</text>
</g>
<!-- app__message_fwd_listen&#45;&gt;app__message_fwd_send -->
<g id="edge5" class="edge">
<title>app__message_fwd_listen&#45;&gt;app__message_fwd_send</title>
<path fill="none" stroke="#000000" d="M1586.71,-295.84C1586.61,-286.93 1586.5,-276.8 1586.4,-267.26"/>
<polygon fill="#000000" stroke="#000000" points="1589.9,-267.18 1586.29,-257.22 1582.9,-267.26 1589.9,-267.18"/>
</g>
<!-- app__message_fwd_send&#45;&gt;app__Message -->
<g id="edge7" class="edge">
<title>app__message_fwd_send&#45;&gt;app__Message</title>
<path fill="none" stroke="#000000" d="M1581.88,-203.5C1580.58,-195.36 1579.12,-186.22 1577.73,-177.51"/>
<polygon fill="#000000" stroke="#000000" points="1581.18,-176.9 1576.14,-167.58 1574.26,-178.01 1581.18,-176.9"/>
</g>
<!-- app__message_fwd_send&#45;&gt;app__draft_message -->
<g id="edge6" class="edge">
<title>app__message_fwd_send&#45;&gt;app__draft_message</title>
<path fill="none" stroke="#000000" d="M1622.8,-205.61C1639.97,-194.53 1660.53,-181.26 1678.47,-169.69"/>
<polygon fill="#000000" stroke="#000000" points="1680.54,-172.53 1687.04,-164.16 1676.74,-166.64 1680.54,-172.53"/>
</g>
<!-- app__sendUDP&#45;&gt;app__craftMessage -->
<g id="edge9" class="edge">
<title>app__sendUDP&#45;&gt;app__craftMessage</title>
<path fill="none" stroke="#000000" d="M1897.4,-203.03C1897.22,-195.06 1897.02,-186.17 1896.82,-177.68"/>
<polygon fill="#000000" stroke="#000000" points="1900.32,-177.53 1896.59,-167.61 1893.32,-177.69 1900.32,-177.53"/>
</g>
<!-- app__trigger_start -->
<g id="node15" class="node">
<title>app__trigger_start</title>
<ellipse fill="#fecccc" fill-opacity="0.698039" stroke="black" cx="1758" cy="-423.83" rx="58.88" ry="26.74"/>
<text text-anchor="middle" x="1758" y="-427.63" font-family="Times New Roman,serif" font-size="14.00" fill="#000000">trigger_start</text>
<text text-anchor="middle" x="1758" y="-412.63" font-family="Times New Roman,serif" font-size="14.00" fill="#000000">(app.py:19)</text>
</g>
<!-- app__trigger_start&#45;&gt;app__main -->
<g id="edge3" class="edge">
<title>app__trigger_start&#45;&gt;app__main</title>
<path fill="none" stroke="#000000" d="M1758,-396.89C1758,-385.75 1758,-372.54 1758,-360.46"/>
<polygon fill="#000000" stroke="#000000" points="1761.5,-360.2 1758,-350.2 1754.5,-360.2 1761.5,-360.2"/>
</g>
<!-- app__udp_port_search -->
<g id="node16" class="node">
<title>app__udp_port_search</title>
<ellipse fill="#fecccc" fill-opacity="0.698039" stroke="black" cx="1587" cy="-423.83" rx="79.81" ry="26.74"/>
<text text-anchor="middle" x="1587" y="-427.63" font-family="Times New Roman,serif" font-size="14.00" fill="#000000">udp_port_search</text>
<text text-anchor="middle" x="1587" y="-412.63" font-family="Times New Roman,serif" font-size="14.00" fill="#000000">(app.py:34)</text>
</g>
<!-- app__udp_port_search&#45;&gt;app__message_fwd_listen -->
<g id="edge4" class="edge">
<title>app__udp_port_search&#45;&gt;app__message_fwd_listen</title>
<path fill="none" stroke="#000000" d="M1587,-396.89C1587,-385.75 1587,-372.54 1587,-360.46"/>
<polygon fill="#000000" stroke="#000000" points="1590.5,-360.2 1587,-350.2 1583.5,-360.2 1590.5,-360.2"/>
</g>
<!-- app__Message____init__ -->
<g id="node17" class="node">
<title>app__Message____init__</title>
<ellipse fill="#ff9999" fill-opacity="0.698039" stroke="black" cx="2046" cy="-423.83" rx="62.45" ry="26.74"/>
<text text-anchor="middle" x="2046" y="-427.63" font-family="Times New Roman,serif" font-size="14.00" fill="#000000">__init__</text>
<text text-anchor="middle" x="2046" y="-412.63" font-family="Times New Roman,serif" font-size="14.00" fill="#000000">(app.py:120)</text>
</g>
<!-- layer4_v1__find_udp_port -->
<g id="node18" class="node">
<title>layer4_v1__find_udp_port</title>
<ellipse fill="#fefecc" fill-opacity="0.698039" stroke="black" cx="694" cy="-230.35" rx="75.82" ry="26.74"/>
<text text-anchor="middle" x="694" y="-234.15" font-family="Times New Roman,serif" font-size="14.00" fill="#000000">find_udp_port</text>
<text text-anchor="middle" x="694" y="-219.15" font-family="Times New Roman,serif" font-size="14.00" fill="#000000">(layer4_v1.py:7)</text>
</g>
<!-- listendata__Thread -->
<g id="node19" class="node">
<title>listendata__Thread</title>
<ellipse fill="#ccfecc" fill-opacity="0.698039" stroke="black" cx="315" cy="-230.35" rx="74.49" ry="26.74"/>
<text text-anchor="middle" x="315" y="-234.15" font-family="Times New Roman,serif" font-size="14.00" fill="#000000">Thread</text>
<text text-anchor="middle" x="315" y="-219.15" font-family="Times New Roman,serif" font-size="14.00" fill="#000000">(listendata.py:6)</text>
</g>
<!-- listendata__listen_threads&#45;&gt;layer4_v1__find_udp_port -->
<g id="edge20" class="edge">
<title>listendata__listen_threads&#45;&gt;layer4_v1__find_udp_port</title>
<path fill="none" stroke="#000000" d="M369.91,-303.69C380.77,-300.7 392.16,-298 403,-296.22 447.55,-288.91 562.96,-301.84 606,-288.22 624.12,-282.48 642.11,-271.96 657.06,-261.5"/>
<polygon fill="#000000" stroke="#000000" points="659.44,-264.1 665.48,-255.39 655.33,-258.43 659.44,-264.1"/>
</g>
<!-- listendata__listen_threads&#45;&gt;listendata__Thread -->
<g id="edge18" class="edge">
<title>listendata__listen_threads&#45;&gt;listendata__Thread</title>
<path fill="none" stroke="#000000" d="M315,-295.84C315,-286.93 315,-276.8 315,-267.26"/>
<polygon fill="#000000" stroke="#000000" points="318.5,-267.22 315,-257.22 311.5,-267.22 318.5,-267.22"/>
</g>
<!-- listendata__Thread____init__ -->
<g id="node22" class="node">
<title>listendata__Thread____init__</title>
<ellipse fill="#99ff99" fill-opacity="0.698039" stroke="black" cx="868" cy="-230.35" rx="74.49" ry="26.74"/>
<text text-anchor="middle" x="868" y="-234.15" font-family="Times New Roman,serif" font-size="14.00" fill="#000000">__init__</text>
<text text-anchor="middle" x="868" y="-219.15" font-family="Times New Roman,serif" font-size="14.00" fill="#000000">(listendata.py:7)</text>
</g>
<!-- listendata__listen_threads&#45;&gt;listendata__Thread____init__ -->
<g id="edge19" class="edge">
<title>listendata__listen_threads&#45;&gt;listendata__Thread____init__</title>
<path fill="none" stroke="#000000" d="M369.89,-303.53C380.74,-300.55 392.14,-297.9 403,-296.22 444.63,-289.78 741.79,-300.78 782,-288.22 799.85,-282.65 817.46,-272.15 832.05,-261.67"/>
<polygon fill="#000000" stroke="#000000" points="834.34,-264.33 840.27,-255.55 830.16,-258.72 834.34,-264.33"/>
</g>
<!-- listendata__message_fwd_listen -->
<g id="node21" class="node">
<title>listendata__message_fwd_listen</title>
<ellipse fill="#ccfecc" fill-opacity="0.698039" stroke="black" cx="503" cy="-323.09" rx="91.43" ry="26.74"/>
<text text-anchor="middle" x="503" y="-326.89" font-family="Times New Roman,serif" font-size="14.00" fill="#000000">message_fwd_listen</text>
<text text-anchor="middle" x="503" y="-311.89" font-family="Times New Roman,serif" font-size="14.00" fill="#000000">(listendata.py:19)</text>
</g>
<!-- parsedata__recv_data -->
<g id="node26" class="node">
<title>parsedata__recv_data</title>
<ellipse fill="#ccccfe" fill-opacity="0.698039" stroke="black" cx="1218" cy="-230.35" rx="75.82" ry="26.74"/>
<text text-anchor="middle" x="1218" y="-234.15" font-family="Times New Roman,serif" font-size="14.00" fill="#000000">recv_data</text>
<text text-anchor="middle" x="1218" y="-219.15" font-family="Times New Roman,serif" font-size="14.00" fill="#000000">(parsedata.py:5)</text>
</g>
<!-- listendata__message_fwd_listen&#45;&gt;parsedata__recv_data -->
<g id="edge17" class="edge">
<title>listendata__message_fwd_listen&#45;&gt;parsedata__recv_data</title>
<path fill="none" stroke="#000000" d="M564.11,-303.04C575.28,-300.25 586.91,-297.79 598,-296.22 656.54,-287.94 1073.43,-305.37 1130,-288.22 1148.34,-282.66 1166.48,-272.05 1181.49,-261.48"/>
<polygon fill="#000000" stroke="#000000" points="1183.93,-264.03 1189.94,-255.31 1179.8,-258.38 1183.93,-264.03"/>
</g>
<!-- listendata__Thread__run -->
<g id="node23" class="node">
<title>listendata__Thread__run</title>
<ellipse fill="#99ff99" fill-opacity="0.698039" stroke="black" cx="1039" cy="-230.35" rx="79.39" ry="26.74"/>
<text text-anchor="middle" x="1039" y="-234.15" font-family="Times New Roman,serif" font-size="14.00" fill="#000000">run</text>
<text text-anchor="middle" x="1039" y="-219.15" font-family="Times New Roman,serif" font-size="14.00" fill="#000000">(listendata.py:12)</text>
</g>
<!-- listendata__Thread__run&#45;&gt;listendata__message_fwd_listen -->
<g id="edge16" class="edge">
<title>listendata__Thread__run&#45;&gt;listendata__message_fwd_listen</title>
<path fill="none" stroke="#000000" d="M1010.53,-255.54C994.22,-267.82 972.73,-281.54 951,-288.22 913.5,-299.75 636.82,-290.58 598,-296.22 590.12,-297.36 581.97,-298.95 573.9,-300.77"/>
<polygon fill="#000000" stroke="#000000" points="573.03,-297.38 564.12,-303.11 574.66,-304.19 573.03,-297.38"/>
</g>
<!-- parsedata__parse_data -->
<g id="node25" class="node">
<title>parsedata__parse_data</title>
<ellipse fill="#ccccfe" fill-opacity="0.698039" stroke="black" cx="1392" cy="-230.35" rx="79.81" ry="26.74"/>
<text text-anchor="middle" x="1392" y="-234.15" font-family="Times New Roman,serif" font-size="14.00" fill="#000000">parse_data</text>
<text text-anchor="middle" x="1392" y="-219.15" font-family="Times New Roman,serif" font-size="14.00" fill="#000000">(parsedata.py:10)</text>
</g>
</g>
</svg>

